<svg xmlns="http://www.w3.org/2000/svg" width="227" height="26" viewBox="0 0 227 26" fill="none">
  <path d="M71.7827 0.00119719C69.0759 2.67911 66.1813 5.54922 63.3404 8.36957H28.2714C27.9463 8.36957 27.6342 8.49882 27.4043 8.72873L26.6866 9.44644C26.4936 9.63951 26.6303 9.96958 26.9033 9.96962H56.1992C59.1832 9.96962 60.482 12.3489 58.1437 14.6872C55.5318 17.2843 53.1587 19.6464 51.2647 21.5324C48.3903 24.3945 44.5022 26 40.4459 26H0C0 26 3.49719 22.5133 8.40339 17.6316H43.5275C43.8526 17.6316 44.1647 17.5024 44.3946 17.2725L45.1123 16.5548C45.3053 16.3617 45.1686 16.0316 44.8956 16.0316H16.6963C14.2354 16.0316 13.0064 13.0537 14.7521 11.3192C17.0157 9.07004 19.3716 6.73099 21.6886 4.4338C24.5545 1.59249 28.4277 0.00119719 32.4634 0.00119719H71.7827ZM109.832 8.36448H84.6612C81.4465 8.36448 78.3635 9.64173 76.0905 11.9151L62.0086 25.9994H50.151C50.1751 25.9753 61.9029 14.2821 68.424 7.86316C75.1496 1.46097 78.5023 0.000600073 90.8382 0.000598596H118.195L109.832 8.36448ZM99.912 18.2841H85.5645C84.4266 18.2841 83.3352 18.7362 82.5305 19.5409L76.072 25.9994H64.2144L77.1935 13.018C79.1739 11.0372 81.8603 9.92442 84.6612 9.92442H108.272L99.912 18.2841ZM187.264 21.4848C187.264 22.0981 187.4 22.5525 187.673 22.8478C187.957 23.1317 188.44 23.2737 189.121 23.2737H191.063C191.699 23.2737 192.159 23.1316 192.443 22.8478C192.738 22.5525 192.886 22.0981 192.886 21.4848V13.0009H196.293V21.1613C196.293 21.9221 196.202 22.6036 196.02 23.2055C195.85 23.8074 195.56 24.3186 195.152 24.7388C194.754 25.1476 194.215 25.4598 193.533 25.6756C192.852 25.8914 192.011 25.9994 191.012 25.9994H189.172C187.264 25.9994 185.901 25.5735 185.084 24.7217C184.266 23.87 183.857 22.683 183.857 21.1613V13.0009H187.264V21.4848ZM177.977 12.7965C179.056 12.7965 179.856 13.1033 180.379 13.7165C180.913 14.3185 181.236 15.2952 181.35 16.6467L182.151 25.7779H178.863L178.181 16.1525C178.17 16.039 178.147 15.9426 178.113 15.8631C178.09 15.7836 178.022 15.7437 177.909 15.7437C177.818 15.7437 177.744 15.7836 177.687 15.8631C177.631 15.9312 177.596 16.0163 177.585 16.1184L176.444 22.9499C176.296 23.8584 175.927 24.5911 175.336 25.1476C174.757 25.7041 173.99 25.9824 173.036 25.9824C172.048 25.9824 171.259 25.6984 170.668 25.1306C170.078 24.5513 169.709 23.8187 169.561 22.9328L168.369 16.1355C168.346 16.0107 168.306 15.9142 168.249 15.846C168.193 15.7779 168.119 15.7437 168.028 15.7437C167.914 15.7437 167.835 15.7836 167.789 15.8631C167.755 15.9426 167.733 16.0447 167.721 16.1696L167.04 25.7779H163.752L164.553 16.6467C164.666 15.2838 165.035 14.3014 165.66 13.6995C166.296 13.0976 167.097 12.7965 168.062 12.7965C169.095 12.7965 169.913 13.1144 170.515 13.7503C171.128 14.375 171.52 15.2326 171.691 16.3228L172.696 22.6772C172.719 22.8135 172.753 22.9159 172.798 22.984C172.855 23.0521 172.94 23.0861 173.054 23.0861C173.167 23.086 173.252 23.0464 173.309 22.9669C173.366 22.8875 173.4 22.7796 173.411 22.6434L174.382 16.3058C174.541 15.2269 174.922 14.375 175.524 13.7503C176.137 13.1144 176.955 12.7965 177.977 12.7965ZM142.429 12.8306C143.463 12.8306 144.371 12.9669 145.155 13.2394C145.938 13.512 146.586 13.898 147.097 14.3977C147.608 14.8861 147.988 15.4825 148.238 16.1866C148.499 16.8794 148.63 17.6517 148.63 18.5035V20.2753C148.63 21.1271 148.499 21.9052 148.238 22.6093C147.988 23.302 147.608 23.8982 147.097 24.3979C146.586 24.8862 145.938 25.2668 145.155 25.5394C144.371 25.812 143.463 25.9482 142.429 25.9482H141.305C140.271 25.9482 139.363 25.812 138.579 25.5394C137.795 25.2668 137.148 24.8862 136.637 24.3979C136.126 23.8982 135.74 23.302 135.478 22.6093C135.229 21.9052 135.103 21.1271 135.103 20.2753V18.5035C135.103 17.6517 135.229 16.8794 135.478 16.1866C135.74 15.4825 136.126 14.8861 136.637 14.3977C137.148 13.898 137.795 13.512 138.579 13.2394C139.363 12.9669 140.271 12.8306 141.305 12.8306H142.429ZM133.736 15.8119H127.075V18.1629H133.736V20.9736H127.075V25.7779H123.668V13.0009H133.736V15.8119ZM157.915 13.0009C159.562 13.0009 160.777 13.2734 161.561 13.8186C162.344 14.3637 162.736 15.2441 162.736 16.4593V17.1917C162.736 17.7254 162.628 18.2024 162.413 18.6226C162.197 19.0315 161.907 19.3782 161.544 19.6621C161.192 19.946 160.771 20.1672 160.283 20.3262C159.806 20.4739 159.301 20.5477 158.767 20.5477H158.358L162.685 25.7779H158.869L155.479 21.8766C155.195 21.5473 154.996 21.2236 154.883 20.9057C154.769 20.5877 154.712 20.3037 154.712 20.0539C154.712 19.4974 154.883 19.0772 155.223 18.7932C155.564 18.4979 156.024 18.3503 156.603 18.3503H158.29C158.665 18.3503 158.943 18.2479 159.124 18.0435C159.306 17.8277 159.397 17.5608 159.397 17.2429V16.6808C159.397 16.3401 159.306 16.0786 159.124 15.8969C158.954 15.7153 158.665 15.6246 158.256 15.6246H153.826V25.7779H150.419V13.0009H157.915ZM201.823 22.9669H208.314V25.7779H198.416V13.0009H201.823V22.9669ZM216.368 12.7965C217.254 12.7965 217.947 13.0408 218.447 13.5292C218.958 14.0062 219.372 14.6423 219.69 15.4372L223.898 25.7779H220.355L219.349 23.1031H213.37L212.347 25.7779H208.906L213.148 15.471C213.478 14.6648 213.881 14.0175 214.358 13.5292C214.846 13.0408 215.516 12.7965 216.368 12.7965ZM141.203 15.5734C140.283 15.5734 139.629 15.7835 139.243 16.2037C138.869 16.6126 138.681 17.3224 138.681 18.3332V20.4115C138.681 21.4223 138.869 22.1379 139.243 22.5581C139.629 22.9783 140.283 23.1884 141.203 23.1884H142.531C143.451 23.1884 144.098 22.9783 144.473 22.5581C144.859 22.1379 145.053 21.4223 145.053 20.4115V18.3332C145.053 17.3224 144.859 16.6126 144.473 16.2037C144.098 15.7835 143.451 15.5734 142.531 15.5734H141.203ZM216.385 15.7778C216.306 15.7778 216.243 15.8063 216.198 15.8631C216.152 15.9198 216.113 15.9936 216.079 16.0843L214.392 20.4627H218.344L216.692 16.0843C216.658 16.0048 216.618 15.9366 216.573 15.8799C216.539 15.8117 216.476 15.7778 216.385 15.7778ZM157.75 0C158.185 0 158.545 0.125484 158.829 0.376517C159.114 0.62757 159.402 0.991678 159.695 1.46866L163.712 7.95863C163.787 8.07576 163.863 8.17215 163.938 8.24746C164.013 8.32272 164.089 8.36026 164.164 8.36029C164.264 8.36029 164.344 8.3269 164.403 8.26003C164.461 8.18472 164.491 8.07994 164.491 7.94606V0.163117H165.934V7.90835C165.934 8.46065 165.792 8.90429 165.507 9.23903C165.231 9.57375 164.821 9.74124 164.277 9.74125C163.817 9.74125 163.444 9.61995 163.16 9.37731C162.884 9.13463 162.62 8.81224 162.369 8.41057L158.264 1.82033C158.181 1.68648 158.109 1.58168 158.051 1.50637C157.992 1.4227 157.913 1.38098 157.812 1.38096C157.687 1.38096 157.595 1.42268 157.536 1.50637C157.486 1.59002 157.461 1.70299 157.461 1.84517V9.57814H156.017V1.9206C156.017 1.38503 156.151 0.932987 156.419 0.564775C156.687 0.188215 157.13 4.95789e-06 157.75 0ZM131.276 1.41837H126.719C126.117 1.41837 125.698 1.52315 125.464 1.73234C125.238 1.94155 125.125 2.18857 125.125 2.4731C125.125 2.79939 125.23 3.05463 125.439 3.2387C125.656 3.42279 126.05 3.59451 126.619 3.7535L129.004 4.43111C129.832 4.66542 130.468 4.9794 130.912 5.3727C131.364 5.75766 131.59 6.29761 131.59 6.9922C131.59 7.77041 131.326 8.3981 130.799 8.87508C130.28 9.34371 129.485 9.57813 128.414 9.57814H123.907V8.32258H128.552C129.104 8.32258 129.506 8.21392 129.757 7.99635C130.016 7.77877 130.146 7.48579 130.146 7.11761C130.146 6.73266 130.037 6.44392 129.82 6.25144C129.61 6.05062 129.209 5.87079 128.615 5.7118L126.23 5.05903C125.409 4.83309 124.773 4.53172 124.322 4.15515C123.878 3.77857 123.656 3.2386 123.656 2.53565C123.656 1.83274 123.92 1.26361 124.447 0.828457C124.983 0.384916 125.794 0.16312 126.882 0.163117H131.276V1.41837ZM140.461 0.163117C140.913 0.163123 141.344 0.205141 141.754 0.288823C142.172 0.364146 142.541 0.50222 142.859 0.703051C143.176 0.895522 143.427 1.16331 143.612 1.50637C143.804 1.8411 143.9 2.26374 143.9 2.77419V3.3267C143.9 3.83711 143.804 4.26402 143.612 4.60709C143.427 4.94175 143.176 5.20959 142.859 5.41041C142.541 5.60287 142.172 5.74095 141.754 5.82464C141.344 5.89995 140.913 5.93747 140.461 5.93747H137.988V9.57814H136.544V6.40198C136.544 5.82461 136.728 5.39354 137.096 5.10902C137.465 4.82448 137.942 4.68222 138.528 4.68222H140.687C141.331 4.68221 141.775 4.57348 142.017 4.35598C142.268 4.13841 142.394 3.80342 142.394 3.35154V2.74905C142.394 2.2972 142.268 1.96248 142.017 1.74491C141.775 1.52737 141.331 1.41839 140.687 1.41837H136.546V0.163117H140.461ZM150.363 9.57814H148.919V0.163117H150.363V9.57814Z" fill="#ffffff" fill-opacity="0.95"/>
</svg>