<svg width="120" height="44" viewBox="0 0 120 44" fill="none" xmlns="http://www.w3.org/2000/svg">
<g clip-path="url(#clip0_14738_28540)">
<path d="M11.28 36.8796C10.932 36.8796 10.635 36.7566 10.387 36.5086C10.139 36.2606 10.009 35.9636 9.99599 35.6156V24.5006C10.009 24.1536 10.14 23.8556 10.387 23.6076C10.634 23.3596 10.932 23.2366 11.28 23.2366H11.541V23.0366H5.44199V23.2366H5.70299C6.04999 23.2366 6.34799 23.3606 6.59599 23.6076C6.84299 23.8546 6.97399 24.1526 6.98699 24.5006V35.6156C6.97399 35.9636 6.84299 36.2616 6.59599 36.5086C6.34799 36.7556 6.05099 36.8796 5.70299 36.8796H5.44199V37.0806H11.541V36.8796H11.28Z" fill="#F2B762"/>
<path d="M18.142 35.6366L13.166 28.8176L17.121 24.1266C17.373 23.8696 17.666 23.6526 18.011 23.4886C18.392 23.3076 18.804 23.2176 19.245 23.2176H19.325V23.0376H14.731V23.2176H14.932C15.199 23.2176 15.387 23.3176 15.494 23.5186C15.599 23.7156 15.573 23.9266 15.42 24.1486L10.638 30.4606C10.946 30.9016 11.226 31.2966 11.481 31.6446C11.735 31.9926 12.006 32.3636 12.293 32.7576C12.581 33.1526 12.858 33.5376 13.126 33.9116C13.393 34.2866 13.628 34.6076 13.828 34.8746C14.029 35.1426 14.162 35.3236 14.229 35.4166C14.55 35.8446 14.928 36.1756 15.362 36.4096C15.797 36.6436 16.228 36.8076 16.656 36.9016C17.084 36.9946 17.468 37.0486 17.81 37.0616C18.151 37.0756 18.395 37.0816 18.542 37.0816H20.187V36.8806C19.773 36.8676 19.405 36.7576 19.084 36.5496C18.763 36.3426 18.449 36.0376 18.141 35.6376L18.142 35.6366Z" fill="#F2B762"/>
<path d="M25.123 23.0366H20.629V23.2366H20.89C21.237 23.2366 21.535 23.3606 21.783 23.6076C22.03 23.8546 22.161 24.1526 22.174 24.5006V35.6156C22.161 35.9636 22.03 36.2616 21.783 36.5086C21.535 36.7556 21.238 36.8796 20.89 36.8796H20.629V37.0806H26.728V36.8796H26.467C26.119 36.8796 25.822 36.7566 25.574 36.5086C25.326 36.2606 25.196 35.9636 25.183 35.6156V24.5006C25.196 24.1536 25.327 23.8556 25.574 23.6076C25.821 23.3596 26.119 23.2366 26.467 23.2366H26.728V23.0366H25.123Z" fill="#F2B762"/>
<path d="M42.638 23.0368H38.224V23.2368H38.605C38.952 23.2368 39.244 23.3548 39.478 23.5888C39.712 23.8228 39.836 24.1138 39.849 24.4618V32.3918L29.718 22.7368H29.517C29.677 23.6588 29.758 24.4958 29.758 25.2438V35.6568C29.758 35.9908 29.637 36.2788 29.397 36.5198C29.156 36.7608 28.868 36.8808 28.534 36.8808H28.153V37.0818H34.232V36.8808H33.851C33.517 36.8808 33.229 36.7608 32.988 36.5198C32.747 36.2788 32.627 35.9908 32.627 35.6568H32.624L32.61 27.7068L42.758 37.3618H42.939C42.859 36.9338 42.798 36.5218 42.758 36.1278C42.718 35.7338 42.698 35.2888 42.698 34.7938V24.4608C42.711 24.1128 42.839 23.8228 43.079 23.5878C43.32 23.3538 43.607 23.2358 43.942 23.2358H44.303V23.0358H42.638V23.0368Z" fill="#F2B762"/>
<path d="M55.378 30.5608H55.699C56.381 30.5608 56.722 30.8618 56.722 31.4628L56.702 34.5328C56.555 34.9608 56.307 35.3228 55.96 35.6158C55.612 35.9108 55.208 36.1348 54.746 36.2878C54.285 36.4418 53.806 36.5188 53.312 36.5188C52.336 36.5058 51.506 36.2418 50.824 35.7258C50.142 35.2118 49.624 34.4758 49.269 33.5198C48.914 32.5638 48.737 31.4428 48.737 30.1588C48.737 28.7948 48.927 27.6238 49.309 26.6478C49.69 25.6708 50.255 24.9188 51.004 24.3908C51.753 23.8628 52.676 23.5988 53.773 23.5988C54.482 23.5988 55.154 23.7158 55.789 23.9498C56.424 24.1838 56.983 24.5718 57.464 25.1138C57.945 25.6558 58.313 26.3818 58.567 27.2908H58.747L58.707 23.8598C58.319 23.6458 57.831 23.4588 57.243 23.2978C56.654 23.1378 56.012 23.0068 55.317 22.9068C54.621 22.8068 53.906 22.7568 53.17 22.7568C51.592 22.7568 50.224 23.0548 49.067 23.6498C47.91 24.2448 47.02 25.0848 46.399 26.1678C45.777 27.2508 45.466 28.5428 45.466 30.0398C45.466 31.5368 45.78 32.8348 46.409 33.9318C47.038 35.0288 47.92 35.8748 49.057 36.4698C50.194 37.0658 51.525 37.3628 53.049 37.3628C54.119 37.3628 55.099 37.2328 55.988 36.9718C56.877 36.7108 57.64 36.3808 58.275 35.9788C58.91 35.5778 59.388 35.1758 59.709 34.7748V31.4648C59.682 30.8638 60.017 30.5628 60.712 30.5628H61.013V30.3618H55.375V30.5628L55.378 30.5608Z" fill="#F2B762"/>
<path d="M73.053 23.8896C71.902 23.3216 70.538 23.0366 68.96 23.0366H61.677L61.697 23.2366H61.938C62.285 23.2366 62.586 23.3606 62.841 23.6076C63.095 23.8546 63.222 24.1526 63.222 24.5006V35.6156C63.209 35.9636 63.078 36.2616 62.831 36.5086C62.583 36.7556 62.286 36.8796 61.938 36.8796H61.677V37.0806H68.96C70.538 37.0806 71.902 36.7966 73.053 36.2276C74.203 35.6596 75.089 34.8506 75.711 33.7996C76.333 32.7496 76.644 31.5026 76.644 30.0586C76.644 28.6146 76.333 27.3676 75.711 26.3176C75.089 25.2676 74.203 24.4586 73.053 23.8896ZM72.812 33.3486C72.437 34.2716 71.902 34.9836 71.207 35.4856C70.511 35.9876 69.682 36.2376 68.719 36.2376H66.231V23.8796H68.719C69.682 23.8796 70.511 24.1306 71.207 24.6316C71.902 25.1326 72.437 25.8446 72.812 26.7686C73.186 27.6916 73.374 28.7876 73.374 30.0586C73.374 31.3296 73.186 32.4256 72.812 33.3486Z" fill="#F2B762"/>
<path d="M90.718 23.6489C89.534 23.0539 88.14 22.7559 86.535 22.7559C84.93 22.7559 83.536 23.0539 82.352 23.6489C81.168 24.2439 80.256 25.0869 79.614 26.1769C78.972 27.2679 78.651 28.5619 78.651 30.0589C78.651 31.5699 78.972 32.8669 79.614 33.9509C80.256 35.0339 81.169 35.8739 82.352 36.4679C83.536 37.0639 84.93 37.3609 86.535 37.3609C88.14 37.3609 89.534 37.0639 90.718 36.4679C91.902 35.8729 92.817 35.0309 93.466 33.9409C94.115 32.8509 94.439 31.5569 94.439 30.0589C94.439 28.5479 94.115 27.2499 93.466 26.1669C92.817 25.0839 91.901 24.2439 90.718 23.6489ZM90.578 33.4899C90.21 34.4529 89.682 35.1989 88.993 35.7269C88.304 36.2559 87.485 36.5199 86.535 36.5199C85.599 36.5199 84.786 36.2559 84.097 35.7269C83.408 35.1989 82.876 34.4529 82.502 33.4899C82.127 32.5269 81.94 31.3829 81.94 30.0599C81.94 28.7369 82.127 27.5919 82.502 26.6299C82.876 25.6659 83.408 24.9209 84.097 24.3929C84.786 23.8649 85.598 23.6009 86.535 23.6009C87.484 23.6009 88.303 23.8649 88.993 24.3929C89.682 24.9219 90.21 25.6669 90.578 26.6299C90.946 27.5929 91.13 28.7359 91.13 30.0599C91.13 31.3839 90.946 32.5279 90.578 33.4899Z" fill="#F2B762"/>
<path d="M114.121 36.8799C113.773 36.8799 113.459 36.7699 113.178 36.5489C112.91 36.3379 112.742 36.0419 112.669 35.6669L110.951 22.7559H110.771L104.806 32.9929L98.573 22.7559H98.393L96.736 35.6159H96.728C96.674 36.0169 96.507 36.3279 96.227 36.5489C95.946 36.7699 95.625 36.8799 95.264 36.8799H94.943V37.0809H99.156V36.9009H98.835C98.621 36.9009 98.437 36.8109 98.283 36.6299C98.129 36.4489 98.052 36.2519 98.052 36.0379V35.9789L98.833 28.8229L103.991 37.4829H104.191C104.191 37.1479 104.255 36.8139 104.382 36.4799C104.509 36.1449 104.706 35.7449 104.974 35.2759L108.725 28.7719L109.508 35.9749V36.0379C109.508 36.2519 109.434 36.4489 109.287 36.6299C109.14 36.8109 108.952 36.9009 108.725 36.9009H108.424V37.0809H114.443V36.8799H114.121Z" fill="#F2B762"/>
<path d="M52.939 7.03907H53.12C53.387 7.03907 53.608 7.14707 53.782 7.36107C53.956 7.57507 53.989 7.88207 53.882 8.28307H53.885L51.862 15.3711L47.87 6.55107L47.864 6.51807H47.683L44.042 15.2641L41.571 8.28307H41.584C41.45 7.88207 41.48 7.57407 41.674 7.36107C41.868 7.14707 42.092 7.03907 42.346 7.03907H42.527V6.83907H36.408V7.03907H36.568C36.876 7.03907 37.203 7.13607 37.551 7.33007C37.898 7.52407 38.159 7.84207 38.333 8.28307H38.339L43.108 21.2441H43.288C43.301 20.8831 43.345 20.5351 43.419 20.2011C43.492 19.8671 43.609 19.4721 43.77 19.0171L46.932 11.5531L51.314 21.2431H51.515C51.488 20.9081 51.505 20.5711 51.565 20.2301C51.625 19.8891 51.722 19.4851 51.856 19.0171L55.234 8.21807C55.384 7.81207 55.627 7.51407 55.969 7.33007C56.33 7.13607 56.664 7.03907 56.972 7.03907H57.132V6.83907H52.939V7.03907Z" fill="white"/>
<path d="M61.908 6.83887H57.414V7.03887H57.675C58.022 7.03887 58.32 7.16287 58.568 7.40987C58.815 7.65687 58.946 7.95487 58.959 8.30287V19.4179C58.946 19.7659 58.815 20.0639 58.568 20.3109C58.32 20.5579 58.023 20.6819 57.675 20.6819H57.414V20.8829H63.513V20.6819H63.252C62.904 20.6819 62.607 20.5589 62.359 20.3109C62.112 20.0639 61.981 19.7659 61.968 19.4179V8.30287C61.981 7.95587 62.112 7.65787 62.359 7.40987C62.606 7.16287 62.904 7.03887 63.252 7.03887H63.513V6.83887H61.908Z" fill="white"/>
<path d="M79.482 6.83906H75.008V7.03906H75.389C75.736 7.03906 76.028 7.15706 76.262 7.39106C76.496 7.62506 76.62 7.91606 76.633 8.26406V16.1941L66.501 6.53906H66.3C66.46 7.46106 66.541 8.29806 66.541 9.04606V19.4591C66.541 19.7931 66.42 20.0811 66.18 20.3221C65.939 20.5631 65.651 20.6831 65.317 20.6831H64.936V20.8841H71.015V20.6831H70.634C70.3 20.6831 70.012 20.5631 69.771 20.3221C69.53 20.0811 69.41 19.7931 69.41 19.4591H69.407L69.393 11.5091L79.541 21.1641H79.722C79.642 20.7361 79.581 20.3241 79.541 19.9301C79.501 19.5361 79.481 19.0911 79.481 18.5961V8.26406C79.494 7.91606 79.622 7.62606 79.862 7.39106C80.103 7.15706 80.39 7.03906 80.725 7.03906H81.086V6.83906H79.482Z" fill="white"/>
<path d="M12.033 15.4129C12.254 15.1019 13.496 13.8739 15.549 13.5549C17.417 13.2649 19.328 13.5789 21.132 14.0739C23.349 14.6809 25.394 15.7589 27.672 16.1629C28.997 16.3979 30.481 16.4989 31.745 15.9499C33.636 15.1279 33.952 13.0969 33.521 11.9849C33.091 10.8739 31.902 9.83285 30.308 10.1739L29.991 10.2419L30.131 9.94885C30.137 9.93685 30.757 8.74685 32.48 8.91285C33.323 8.99485 34.069 9.46085 34.58 10.2239C34.965 10.7989 35.326 12.2669 34.925 13.7299C34.568 15.0339 33.664 16.0659 32.312 16.7139C31.379 17.1599 30.295 17.3629 29.08 17.3229C30.004 17.7099 30.795 18.0579 31.546 18.1969C35.382 18.9069 37.69 17.5799 37.69 17.5799C37.69 17.5799 36.98 18.9539 34.387 19.4109C30.085 20.1689 26.328 18.1159 22.72 16.2949L22.227 16.0459C20.622 15.2389 18.707 14.3999 16.672 14.3039C14.064 14.1749 12.104 15.5889 12.137 17.0199C12.165 18.2309 13.046 18.8539 13.93 19.0359C15.202 19.2989 16.283 18.6609 16.283 18.6609C16.283 18.6609 16.175 20.2509 14.106 20.2979C13.464 20.3119 13.141 20.1569 12.811 19.9829C12.113 19.6159 11.59 18.8899 11.422 18.0709L11.403 17.9859C11.358 17.7489 11.341 17.5059 11.352 17.2689C11.356 16.8479 11.436 16.2559 12.033 15.4129Z" fill="#F2B762"/>
<path d="M107.427 15.4129C107.206 15.1019 105.964 13.8739 103.911 13.5549C102.043 13.2649 100.132 13.5789 98.328 14.0739C96.111 14.6809 94.066 15.7589 91.788 16.1629C90.463 16.3979 88.979 16.4989 87.715 15.9499C85.824 15.1279 85.508 13.0969 85.939 11.9849C86.369 10.8739 87.558 9.83285 89.152 10.1739L89.469 10.2419L89.329 9.94885C89.323 9.93685 88.703 8.74685 86.98 8.91285C86.137 8.99485 85.391 9.46085 84.88 10.2239C84.495 10.7989 84.134 12.2669 84.535 13.7299C84.892 15.0339 85.796 16.0659 87.148 16.7139C88.081 17.1599 89.165 17.3629 90.38 17.3229C89.456 17.7099 88.665 18.0579 87.914 18.1969C84.078 18.9069 81.77 17.5799 81.77 17.5799C81.77 17.5799 82.48 18.9539 85.073 19.4109C89.375 20.1689 93.132 18.1159 96.74 16.2949L97.233 16.0459C98.838 15.2389 100.753 14.3999 102.788 14.3039C105.396 14.1749 107.356 15.5889 107.323 17.0199C107.295 18.2309 106.414 18.8539 105.53 19.0359C104.258 19.2989 103.177 18.6609 103.177 18.6609C103.177 18.6609 103.285 20.2509 105.354 20.2979C105.996 20.3119 106.319 20.1569 106.649 19.9829C107.347 19.6159 107.87 18.8899 108.038 18.0709L108.057 17.9859C108.102 17.7489 108.119 17.5059 108.108 17.2689C108.104 16.8479 108.024 16.2559 107.427 15.4129Z" fill="#F2B762"/>
<path d="M86.644 26.2231C86.382 26.7331 86.09 27.2281 85.805 27.6671C85.079 28.7821 84.467 29.4751 83.966 29.9071C84.467 30.3371 85.079 31.0311 85.805 32.1461C86.09 32.5841 86.382 33.0801 86.644 33.5901C86.906 33.0801 87.197 32.5841 87.483 32.1461C88.208 31.0311 88.82 30.3371 89.32 29.9071C88.82 29.4751 88.207 28.7821 87.483 27.6671C87.197 27.2281 86.906 26.7331 86.644 26.2231Z" fill="white"/>
<path d="M57.806 6.83887H56.744V7.04787H57.806V6.83887Z" fill="white"/>
<path d="M20.935 36.8721H19.873V37.0811H20.935V36.8721Z" fill="#F2B762"/>
</g>
<defs>
<clipPath id="clip0_14738_28540">
<rect width="109" height="44" fill="white" transform="translate(5.44199)"/>
</clipPath>
</defs>
</svg>
