<?xml version="1.0" encoding="UTF-8"?>
<svg id="Logo" xmlns="http://www.w3.org/2000/svg" xmlns:xlink="http://www.w3.org/1999/xlink" version="1.1" viewBox="0 0 84 26">
  <!-- Generator: Adobe Illustrator 29.7.1, SVG Export Plug-In . SVG Version: 2.1.1 Build 8)  -->
  <defs>
    <style>
      .st0 {
        fill: url(#linear-gradient2);
      }

      .st1 {
        fill: url(#linear-gradient1);
      }

      .st2 {
        fill: url(#linear-gradient9);
      }

      .st3 {
        fill: url(#linear-gradient3);
      }

      .st4 {
        fill: url(#linear-gradient6);
      }

      .st5 {
        fill: url(#linear-gradient8);
      }

      .st6 {
        fill: url(#linear-gradient7);
      }

      .st7 {
        fill: url(#linear-gradient5);
      }

      .st8 {
        fill: url(#linear-gradient4);
      }

      .st9 {
        fill: url(#linear-gradient18);
      }

      .st10 {
        fill: url(#linear-gradient13);
      }

      .st11 {
        fill: url(#linear-gradient12);
      }

      .st12 {
        fill: url(#linear-gradient15);
      }

      .st13 {
        fill: url(#linear-gradient16);
      }

      .st14 {
        fill: url(#linear-gradient11);
      }

      .st15 {
        fill: url(#linear-gradient10);
      }

      .st16 {
        fill: url(#linear-gradient17);
      }

      .st17 {
        fill: url(#linear-gradient14);
      }

      .st18 {
        fill: url(#linear-gradient19);
      }

      .st19 {
        fill: url(#linear-gradient21);
      }

      .st20 {
        fill: url(#linear-gradient20);
      }

      .st21 {
        fill: url(#radial-gradient);
      }

      .st22 {
        fill: url(#linear-gradient);
      }

      .st23 {
        fill: url(#radial-gradient1);
      }

      .st24 {
        fill: url(#radial-gradient2);
      }

      .st25 {
        fill: #ffd600;
      }

      .st26 {
        fill: gold;
      }

      .st27 {
        fill: #bc20d6;
      }
    </style>
    <linearGradient id="linear-gradient" x1="22.9024" y1="11.3336" x2="24.4673" y2="10.6918" gradientTransform="translate(0 27) scale(1 -1)" gradientUnits="userSpaceOnUse">
      <stop offset="0" stop-color="#ff6d00"/>
      <stop offset="1" stop-color="#9200ef"/>
    </linearGradient>
    <radialGradient id="radial-gradient" cx="3843.1976" cy="-1214.3159" fx="3843.1976" fy="-1214.3159" r="43.9257" gradientTransform="translate(-233.4178 -431.3494) rotate(32.9892) scale(.1296 -.1708) skewX(.1791)" gradientUnits="userSpaceOnUse">
      <stop offset=".6076" stop-color="#9200ef"/>
      <stop offset=".964" stop-color="#ff6d00"/>
    </radialGradient>
    <linearGradient id="linear-gradient1" x1="42.9329" y1="2.502" x2="42.4927" y2="1.4436" gradientTransform="translate(0 27) scale(1 -1)" gradientUnits="userSpaceOnUse">
      <stop offset="0" stop-color="#ff6d00"/>
      <stop offset=".6052" stop-color="#bb2993"/>
      <stop offset="1" stop-color="#9200ef"/>
    </linearGradient>
    <radialGradient id="radial-gradient1" cx="3916.5311" cy="-382.0638" fx="3916.5311" fy="-382.0638" r="87.577" gradientTransform="translate(-242.0699 -389.0622) rotate(45.5217) scale(.1295 -.1531) skewX(.1755)" gradientUnits="userSpaceOnUse">
      <stop offset=".8386" stop-color="#ff6d00"/>
      <stop offset=".9284" stop-color="#bb2993"/>
      <stop offset=".987" stop-color="#9200ef"/>
    </radialGradient>
    <linearGradient id="linear-gradient2" x1="15.3961" y1="17.7118" x2="17.4042" y2="17.5665" gradientTransform="translate(0 27) scale(1 -1)" gradientUnits="userSpaceOnUse">
      <stop offset="0" stop-color="#ff6d00"/>
      <stop offset=".9094" stop-color="#9200ef"/>
    </linearGradient>
    <linearGradient id="linear-gradient3" x1="1.1322" y1="14.4861" x2="1.5885" y2="12.4707" gradientTransform="translate(0 27) scale(1 -1)" gradientUnits="userSpaceOnUse">
      <stop offset=".0237" stop-color="#ff6d00"/>
      <stop offset=".9094" stop-color="#9200ef"/>
    </linearGradient>
    <linearGradient id="linear-gradient4" x1="17.4216" y1="3.946" x2="17.1149" y2="2.9756" gradientTransform="translate(0 27) scale(1 -1)" gradientUnits="userSpaceOnUse">
      <stop offset=".14" stop-color="#ff6d00"/>
      <stop offset=".2357" stop-color="#ef5d23"/>
      <stop offset=".4463" stop-color="#ce3c6a"/>
      <stop offset=".6356" stop-color="#b422a3"/>
      <stop offset=".7967" stop-color="#a10fcc"/>
      <stop offset=".9234" stop-color="#9604e5"/>
      <stop offset="1" stop-color="#9200ef"/>
    </linearGradient>
    <linearGradient id="linear-gradient5" x1="24.9804" y1="19.0957" x2="26.6513" y2="18.2955" xlink:href="#linear-gradient"/>
    <linearGradient id="linear-gradient6" x1="8.3314" y1="19.7536" x2="10.977" y2="18.3291" gradientTransform="translate(0 27) scale(1 -1)" gradientUnits="userSpaceOnUse">
      <stop offset=".0237" stop-color="#ff6d00"/>
      <stop offset="1" stop-color="#9200ef"/>
    </linearGradient>
    <linearGradient id="linear-gradient7" x1="6.508" y1="4.03" x2="6.2705" y2="3.2912" xlink:href="#linear-gradient"/>
    <linearGradient id="linear-gradient8" x1="10.3303" y1="8.5056" x2="12.6428" y2="7.6461" xlink:href="#linear-gradient3"/>
    <linearGradient id="linear-gradient9" x1="59.7591" y1="24.3858" x2="59.4436" y2="20.3237" gradientTransform="translate(0 27) scale(1 -1)" gradientUnits="userSpaceOnUse">
      <stop offset=".0135" stop-color="#ff6d00"/>
      <stop offset=".6106" stop-color="#bb2993"/>
      <stop offset="1" stop-color="#9200ef"/>
    </linearGradient>
    <linearGradient id="linear-gradient10" x1="37.7436" y1="14.7461" x2="37.7436" y2="12.8786" xlink:href="#linear-gradient9"/>
    <linearGradient id="linear-gradient11" x1="50.5311" y1="4.0252" x2="49.9809" y2="2.7113" xlink:href="#linear-gradient1"/>
    <linearGradient id="linear-gradient12" x1="46.9334" y1="8.9137" x2="46.2926" y2="8.8416" xlink:href="#linear-gradient1"/>
    <linearGradient id="linear-gradient13" x1="43.3985" y1="7.8989" x2="43.8972" y2="7.7294" xlink:href="#linear-gradient1"/>
    <radialGradient id="radial-gradient2" cx="511.2367" cy="15770.2314" fx="511.2367" fy="15770.2314" r="39.4028" gradientTransform="translate(-595.5167 -111.929) rotate(95.1701) scale(.1293 -.0412)" gradientUnits="userSpaceOnUse">
      <stop offset=".1656" stop-color="#ff6d00"/>
      <stop offset=".6905" stop-color="#b92798" stop-opacity=".36"/>
      <stop offset="1" stop-color="#9200ef" stop-opacity="0"/>
    </radialGradient>
    <linearGradient id="linear-gradient14" x1="77.0895" y1="14.9035" x2="75.3325" y2="12.1957" xlink:href="#linear-gradient1"/>
    <linearGradient id="linear-gradient15" x1="76.801" y1="11.5738" x2="75.4848" y2="12.0833" xlink:href="#linear-gradient1"/>
    <linearGradient id="linear-gradient16" x1="60.8129" y1="15.1611" x2="59.3016" y2="12.156" gradientTransform="translate(0 27) scale(1 -1)" gradientUnits="userSpaceOnUse">
      <stop offset=".0757" stop-color="#ff6d00"/>
      <stop offset=".4849" stop-color="#cb396f"/>
      <stop offset=".8406" stop-color="#a210cb"/>
      <stop offset="1" stop-color="#9200ef"/>
    </linearGradient>
    <linearGradient id="linear-gradient17" x1="60.9299" y1="15.3912" x2="59.5468" y2="15.6943" gradientTransform="translate(0 27) scale(1 -1)" gradientUnits="userSpaceOnUse">
      <stop offset=".39" stop-color="#ff6d00"/>
      <stop offset=".6898" stop-color="#bb2993"/>
      <stop offset=".8854" stop-color="#9200ef"/>
    </linearGradient>
    <linearGradient id="linear-gradient18" x1="33.9107" y1="12.568" x2="34.9606" y2="11.8801" xlink:href="#linear-gradient1"/>
    <linearGradient id="linear-gradient19" x1="27.3152" y1="15.0193" x2="27.3152" y2="12.6739" xlink:href="#linear-gradient9"/>
    <linearGradient id="linear-gradient20" x1="27.74" y1="3.2332" x2="27.4023" y2="2.3308" xlink:href="#linear-gradient"/>
    <linearGradient id="linear-gradient21" x1="35.7917" y1="19.4368" x2="36.9583" y2="18.8528" xlink:href="#linear-gradient1"/>
  </defs>
  <g id="Logo1" data-name="Logo">
    <g>
      <path class="st22" d="M1.652,13.2438c.001.001.002.0019.003.0029-.3593,3.6574-.0391,7.2484.0321,7.4526.0441.1265.2396.2962.5412.4914l2.4982,1.5997c1.1978.7802,4.2292,2.003,5.7985,2.3751.1115.0264.2222-.0438.2451-.1558.3669-1.7992,1.2966-4.453,2.2205-6.6295.1333,1.98.4091,3.0217.4178,3.032.004.0047.0197.0223.0382.0398l1.8373,1.6205c.4825.4152,2.6933,1.6026,5.6627,2.319.1108.0267.2155-.045.2454-.1548.7309-2.6868,2.3684-6.2601,3.8715-9.9743.0239-.0591.0172-.1219-.0111-.173l-.6564-1.2179c1.4599-3.5177,3.0456-6.688,3.8714-8.1545.0304-.054.0326-.1155.0127-.169l-.9226-2.749c-.0172-.058-.0596-.1115-.1201-.1378-2.5353-1.1053-5.36-1.437-5.9633-1.4976-.0727-.0073-.1437.0222-.1901.0786-1.4593,1.774-3.0137,4.7015-4.1466,7.4249l-1.3544-2.0475c-.0234-.0406-.06-.0735-.1061-.0919-.7926-.3171-1.9733-.5877-2.836-.761.2286-.382.4657-.756.7112-1.1182.0514-.0758.0442-.1722-.009-.2391l-1.9135-2.8152c-.0031-.0046-.0054-.0086-.0088-.0129-.019-.0282-.0442-.0528-.0767-.0701C9.7943.6841,6.4088.1127,5.7208.0027c-.0764-.0122-.1533.0169-.202.0768C2.8241,3.4009,1.0593,8.0231.5125,12.1719c-.0099.0754.0224.1483.0774.194,0,0,1.0621.8779,1.0621.8779Z"/>
      <path class="st21" d="M83.3302,12.7736l-.6563-.1813c-.1078-.0298-.175-.1365-.1551-.2463,1.187-6.5332-2.7685-11.9157-8.9113-11.8999-5.0024-.0083-9.9316,3.5573-12.3035,8.4075-.2552.4979-.5104.9957-.7655,1.4936-.441.8395-.8578,1.6898-1.154,2.5956-.1037.3086-.3014.9546-.4006,1.281-.033.1087.0304.2226.1401.2529l.5974.1651c.1011.0279.1632.1282.1449.2313-1.6563,9.9397,7.9666,14.076,15.2442,8.8643.2703-.187.5407-.3741.8111-.5612.2953-.2043.5905-.4087.8858-.613,3.2856-2.1253,5.8362-5.501,6.6774-9.5385.0231-.1109-.0452-.2207-.1547-.2509h0ZM75.4956,14.8859c-.2456.9404-.695,1.8209-1.2825,2.5854-3.5936,2.3039-8.3996.4086-7.4242-4.4505.0217-.1098-.0465-.2177-.1547-.2476l-.6395-.1767c-.1146-.0317-.1821-.1495-.1512-.2641.111-.4271.2274-.7709.3996-1.1547,2.9305-3.1313,8.4058-2.7859,8.4804,2.1629-.0096.3969-.0651.7099-.1072.8948-.024.1052.0394.2102.1437.239l.5935.164c.1073.0297.1701.14.142.2475h0Z"/>
      <path class="st1" d="M61.4084,2.7957c.0449-.1034.0031-.227-.1021-.2785-2.0077-.9833-5.3435-1.4502-6.0156-1.5367-.0746-.0096-.1487.0196-.196.078-2.0596,2.5424-3.8317,6.1409-5.2076,9.6024-.0836.2104-.3945.1659-.4161-.0593-.1903-1.9824-.6161-6.6005-.6903-7.4059-.0069-.0752-.0521-.1417-.1204-.1742-1.8033-.858-4.9594-1.3477-5.628-1.4445-.0781-.0113-.156.0203-.2036.0831-2.208,2.9134-4.1358,6.7565-5.5423,10.3672-.0129.0331-.0162.067-.0128.0998.0002.0035.0016.0147.0019.0182l.3009,2.1493c.0019.0357.0142.0694.0335.0989-1.1698,3.3877-1.8685,6.3757-1.7945,6.6355,0,0,.3935,1.6073.3942,1.6097.0012.0065.0027.0121.0047.0161.144.2922,1.9815,1.5794,5.4782,2.5109.1088.029.217-.0383.2482-.1461,1.4518-5.0089,2.9398-8.3174,3.6276-9.4209.1027-.1647.3556-.1047.3739.0884.37,3.8926,1.0836,7.1606,1.0922,7.1707.2859.337,2.3806,1.6307,5.9941,2.6248.0965.0266.1956-.0222.2368-.1094l.7421-1.4201c.0012-.0023.0025-.0045.0036-.0069.0074-.0143.0137-.0295.0179-.0458,1.5552-6.081,2.6475-8.3509,3.7269-10.8433.0524-.121-.0155-.2601-.1432-.2939l-.6258-.1658c-.1188-.0315-.1881-.1556-.1515-.2726.2001-.6413.4199-1.2684.6522-1.8771.9995-2.1477,2.0518-3.8779,2.691-4.8566.009-.0138.0158-.0283.021-.0432l1.2091-2.7519h0Z"/>
      <path class="st25" d="M83.3302,12.7736l-.6563-.1813c-.1078-.0298-.175-.1365-.1551-.2463.0101-.0559.0203-.1128.0271-.1539,1.0902-6.5177-2.8538-11.7461-8.9384-11.7461-5.6041,0-11.1026,4.4351-13.0483,10.2278-.1106.3294-.3217,1.0188-.4275,1.367-.0352.116.0324.2376.1495.2699l.6376.1762c.1079.0298.1742.1368.1546.2468-1.1688,6.5811,2.7876,11.8829,8.9147,11.8829s12.1262-5.0179,13.4967-11.592c.0231-.1109-.0452-.2207-.1547-.2509ZM77.7523,12.7476c-.8272,3.1673-3.8186,5.7001-6.7817,5.7001-2.9675,0-4.8059-2.2639-4.1816-5.4269.0217-.1099-.0464-.2178-.1547-.2477l-.6395-.1767c-.1146-.0317-.1821-.1495-.1512-.2641.0463-.1714.1116-.4062.154-.5303.9993-2.9236,3.8261-5.1873,6.6274-5.1873,2.5721,0,4.365,1.9092,4.3033,4.4838-.0102.4236-.0694.7577-.1143.955-.0256.1123.0421.2243.1533.2551l.6333.175c.1145.0316.1815.1494.1515.2641Z"/>
      <path class="st23" d="M61.0734,12.7336c.008-.0448.0012-.0889-.0166-.1276l-1.1902,2.2635c-.0002.0011,0,.0022-.0003.0033-1.6563,9.9397,7.9665,14.076,15.2442,8.8643.2703-.187.5407-.3741.8111-.5612.2953-.2043.5905-.4087.8858-.613.4843-.3133.9522-.6544,1.4014-1.0202-2.3815,1.922-5.2865,3.0737-8.2207,3.0737-6.1271,0-10.0835-5.3017-8.9147-11.8829h0Z"/>
      <path class="st26" d="M23.7713,12.8596l-.7122-.1869c-.1268-.0324-.1961-.169-.1471-.2901,1.6344-4.0355,3.4886-7.7554,4.4256-9.4195.0622-.1104.0159-.251-.1005-.3017-2.5353-1.1053-5.36-1.437-5.9633-1.4976-.0727-.0073-.1437.0222-.1901.0786-2.061,2.5054-4.3117,7.3117-5.2967,10.594-.0676.2251-.4037.1802-.4207-.0542-.1316-1.8128.1834-4.4906.244-5.031.0108-.0962-.0436-.1873-.1336-.2234-1.1913-.4766-3.2607-.8487-3.8068-.9419-.0828-.0141-.1654.0206-.2131.0895-.8511,1.2323-3.1131,5.0114-4.5277,7.8898-.1114.2267-.4564.1096-.406-.1378.5155-2.5319,2.2521-7.7026,4.8977-11.6045.0721-.1063.0367-.2509-.0768-.3114C9.7943.6841,6.4088.1128,5.7208.0027c-.0764-.0122-.1533.0169-.202.0768C2.8241,3.4009,1.0593,8.0231.5125,12.1719c-.0149.1128.0618.2175.1739.2391l.8414.1625c.1109.0214.1861.1244.1734.2364-.4314,3.803-.088,7.6771-.014,7.8895.2323.6661,4.6561,2.5296,6.7169,3.0182.119.0282.2372-.0468.2615-.1663.541-2.653,2.2288-7.0478,3.4624-9.433.2383-.4608.4597-.8466.6526-1.1303.0827-.1216.2732-.0558.2632.0908-.0283.4128-.067,1.0011-.0827,1.3457-.2074,4.5314.434,6.9722.4474,6.9879.3041.3584,2.7556,1.7355,6.117,2.5465.1182.0285.23-.0481.2618-.1652.78-2.8672,2.5275-6.6805,4.1315-10.6441.049-.1211-.0205-.2575-.1473-.2899h0Z"/>
      <path class="st25" d="M57.6124,12.763l-.6258-.1658c-.1188-.0315-.1881-.1556-.1515-.2727,1.3193-4.2273,3.4836-7.8532,4.5567-9.4962.0708-.1084.0309-.2541-.0855-.3111-2.0077-.9833-5.3435-1.4502-6.0156-1.5367-.0746-.0096-.1487.0196-.196.078-2.0596,2.5424-3.8317,6.1409-5.2077,9.6024-.0836.2104-.3945.1659-.4161-.0594-.1903-1.9824-.6161-6.6005-.6903-7.4059-.0069-.0752-.0521-.1417-.1204-.1742-1.8033-.858-4.9594-1.3477-5.628-1.4445-.0781-.0113-.156.0203-.2036.0831-2.208,2.9134-4.1358,6.7565-5.5423,10.3672-.0467.1199.0221.2534.1467.2864l.6203.1644c.124.0329.1919.1657.1464.2854-1.5358,4.0468-2.491,8.0521-2.3813,8.2747.1537.3118,2.1146,1.6854,5.8461,2.6795.1161.0309.2315-.0408.2649-.156,1.5493-5.3453,3.1372-8.876,3.8713-10.0535.1096-.1757.3794-.1117.399.0943.3949,4.1541,1.1564,7.6415,1.1655,7.6523.3051.3596,2.5405,1.7402,6.3967,2.8011.1166.0321.237-.0385.2669-.1554,1.5552-6.081,2.6475-8.3509,3.7269-10.8433.0524-.121-.0155-.2601-.1432-.2939h0Z"/>
      <path class="st27" d="M21.1107,25.3565c.0005-.0004.0009-.0009.0014-.0013-.0005.0004-.001.0007-.0016.0011h.0001s0,.0001,0,.0001ZM21.1121,25.3553c.0089-.0068.0174-.0141.0252-.0223-.0078.0081-.0163.0155-.0252.0223ZM13.4465,21.4521l.0021.0019c-.0013-.0012-.0027-.0025-.0039-.0037.0006.0006.0012.0012.0018.0018ZM13.4209,21.4263c-.0044-.0048-.0088-.0095-.0126-.014.0019.0022.0065.0074.0126.014Z"/>
      <path class="st0" d="M15.3665,11.7821c.017.2344.3531.2794.4207.0542.2875-.9582.6831-2.0463,1.1502-3.1691l-1.3544-2.0475s0,0,0,0c.0224.0387.0329.0844.0276.1314-.0606.5404-.3756,3.2181-.244,5.031h0Z"/>
      <path class="st3" d="M1.5277,12.5735l-.8414-.1625c-.04-.0077-.0751-.0263-.1036-.0518.0024.0022.0046.0046.0071.0067l1.0621.8779c.001.001.002.0019.003.0029.0143-.1456.0295-.2913.0461-.4369.0127-.112-.0624-.215-.1734-.2364h0Z"/>
      <path class="st8" d="M19.683,23.9338s0,0,0,0c-.0457.0277-.1008.0388-.1577.0251-3.1384-.7572-5.4833-2.0077-6.0282-2.462l1.7866,1.5758c.4825.4152,2.6933,1.6026,5.6627,2.319.0605.0146.1186-.0008.1641-.0352l-1.4275-1.4223v-.0003Z"/>
      <path class="st7" d="M28.2799,5.5482l-.9226-2.749c-.0004-.0014-.0013-.0027-.0017-.0041.0164.054.0122.1145-.0179.168-.9371,1.6641-2.7912,5.384-4.4256,9.4195-.049.121.0203.2576.1471.29l.7122.1869c.0655.0167.1152.0615.1417.1173l.0006-.0006.4823.8949c1.4598-3.5175,3.0454-6.6876,3.8712-8.154.0304-.054.0326-.1155.0127-.169h0Z"/>
      <path class="st4" d="M11.4296,1.5945c-.0031-.0045-.0054-.0085-.0088-.0128.0474.0704.0516.1653,0,.2412-2.6456,3.902-4.3822,9.0727-4.8977,11.6045-.0504.2474.2946.3644.406.1378,1.4147-2.8784,3.6767-6.6575,4.5277-7.8898.0476-.069.1303-.1037.2131-.0895.1828.0312.5367.0938.9708.181.2286-.382.4657-.756.7112-1.1182.0514-.0758.0442-.1722-.009-.2391l-1.9134-2.8152h0Z"/>
      <path class="st6" d="M8.5654,23.6926v-.0003c-.0467.028-.1039.0389-.1615.0253-1.6695-.3959-4.8897-1.694-6.1759-2.5269,0,0,.0001,0,.0002.0001l2.4982,1.5997c1.1978.7802,4.2292,2.003,5.7985,2.3751.0471.0112.0936.0043.1339-.0149,0,0-2.0934-1.4581-2.0934-1.4581Z"/>
      <path class="st5" d="M12.9609,14.4244c.0158-.3445.0545-.9329.0827-1.3456.01-.1466-.1805-.2124-.2632-.0908-.1929.2837-.4143.6695-.6526,1.1303-1.2336,2.3851-2.9214,6.78-3.4624,9.433-.0126.0617-.0504.1111-.1001.141v.0003s2.0935,1.4581,2.0935,1.4581c0,0,0,0,0,0,.055-.0263.098-.0762.1112-.1409.3669-1.7992,1.2966-4.453,2.2205-6.6295-.0711-1.0563-.1018-2.3794-.0296-3.9559h0Z"/>
      <path class="st2" d="M57.4873,10.4474c.9995-2.1477,2.0518-3.8779,2.691-4.8566.009-.0138.0158-.0283.021-.0432l1.2091-2.7519c-.0048.011-.0097.0221-.0165.0326-.9103,1.3938-2.6057,4.2148-3.9045,7.6191h0Z"/>
      <path class="st15" d="M37.2754,12.1453l.3009,2.1493c.0019.0357.0142.0694.0335.0989.1852-.5364.3822-1.0828.5899-1.63.0454-.1197-.0224-.2525-.1464-.2854l-.6203-.1644c-.0902-.0239-.1504-.1007-.1594-.1866.0002.0035.0016.0147.0019.0182Z"/>
      <path class="st14" d="M53.0284,25.4824c.0965.0266.1956-.0222.2368-.1094l.7421-1.4201c.0012-.0023.0025-.0045.0036-.0069,0,0,0,0,0,0-.0459.0885-.1487.1373-.2491.1097-3.8562-1.0608-6.0916-2.4415-6.3967-2.8011l-.3309,1.603c.2859.337,2.3806,1.6307,5.9941,2.6248h0Z"/>
      <path class="st11" d="M46.1996,13.6024c-.0108-.1138-.0981-.184-.1924-.1946l-.2335,2.0987c.0837.0144.1587.0786.1684.1805.37,3.8926,1.0836,7.1606,1.0922,7.1707l.3309-1.603c-.0091-.0107-.7706-3.4982-1.1655-7.6522Z"/>
      <path class="st10" d="M46.0072,13.4077c-.0765-.0086-.1576.0217-.2066.1003-.7341,1.1775-2.322,4.7083-3.8713,10.0535-.0159.055-.051.0997-.0955.1284h0v1.4594c.0499-.0258.0898-.0715.1067-.1299,1.4518-5.0089,2.9398-8.3174,3.6276-9.4209.0485-.0778.1305-.1049.2055-.0921l.2335-2.0987h0Z"/>
      <path class="st24" d="M46.1996,13.6024c-.0108-.1138-.0981-.184-.1924-.1946-.0765-.0086-.1576.0217-.2066.1003-.7341,1.1775-2.322,4.7083-3.8713,10.0535-.0159.055-.051.0997-.0955.1284h0v1.4594c.0499-.0258.0898-.0715.1067-.1299,1.4518-5.0089,2.9398-8.3174,3.6276-9.4209.0485-.0778.1305-.1049.2055-.0921.0837.0144.1587.0786.1684.1805.37,3.8926,1.0836,7.1606,1.0922,7.1707l.3309-1.603c-.0091-.0107-.7706-3.4982-1.1655-7.6522h0Z"/>
      <path class="st17" d="M77.6007,12.4835l-.6333-.175c-.1113-.0307-.1789-.1428-.1533-.2551l-2.1976,2.182c-.024.1052.0394.2102.1437.239l.5935.164c.1073.0297.1701.14.142.2475l2.2566-2.1383c.03-.1147-.037-.2324-.1515-.2641h0Z"/>
      <path class="st12" d="M75.4956,14.8859c-.2456.9404-.695,1.8209-1.2825,2.5854,1.6666-1.0214,3.0234-2.7492,3.5391-4.7237,0,0-2.2566,2.1383-2.2566,2.1383Z"/>
      <path class="st13" d="M59.124,14.4765l.5974.1651c.1.0276.1616.1261.1452.2279l1.1903-2.2636c-.0255-.0564-.0742-.1014-.1381-.1191l-.6376-.1762c-.1171-.0324-.1847-.1539-.1495-.2699l-1.1478,2.1828c-.033.1087.0304.2226.1401.2529Z"/>
      <path class="st16" d="M59.3845,12.9426c-.1037.3086-.3014.9546-.4005,1.281l1.1478-2.1828c.1058-.3483.3168-1.0377.4275-1.367.2264-.674.5003-1.3066.6703-1.6748-.2303.4494-.4607.8987-.691,1.3481-.441.8395-.8578,1.6898-1.154,2.5955ZM61.2294,8.9989c.0249-.0485.0497-.097.0746-.1455.1538-.3145.086-.2024-.0746.1455Z"/>
      <path class="st9" d="M35.1737,15.0445c-.1468-.6712-.2937-1.3424-.4407-2.0135,1.0544-2.5112,2.4441-4.9381,3.7228-7.556-.0109-.1238-.0219-.2475-.0329-.3712-.0683-.7731-.1367-1.5463-.2053-2.3194-.0014-.1035-.0309-.2113-.1437-.2507-2.1139-.7566-4.8015-1.2831-5.7075-1.394-.1832-.0224-.2415.0297-.2754.0762-1.8809,2.5834-4.6165,8.2033-5.3521,10.7441-.014.0484-.0377.1653-.0496.2116.0263.0591.0527.118.0791.177.2826.6336.5653,1.2672.8481,1.9007-.5249,2.648-1.1239,6.4093-1.2712,8.8791-.0109.1064.0641.1828.1167.2655.1988.2966.3976.5931.5965.8896.1181.1671.2203.3471.3474.507.2874.2488.8458.453,1.1371.5539.0885.0306.1864-.0035.2369-.0822,0,0,1.8698-3.1292,2.9597-4.88,1.09-1.7507,3.4091-5.1767,3.4091-5.1767.0325-.0509.0387-.1081.025-.1611h0Z"/>
      <path class="st25" d="M34.5448,12.7616l-.8002-.1727c-.1328-.0287-.2045-.1704-.1532-.296,1.2954-3.173,2.8353-6.1947,4.5921-9.442.0655-.121.0198-.2695-.1095-.3171-2.7838-1.0245-5.2188-1.3606-5.7901-1.4293-.0778-.0094-.1523.0255-.2004.0873-1.961,2.5207-4.6249,8.4422-5.3988,10.8331-.0401.124.035.2552.1632.2805l.9175.1785c.1163.0229.197.1354.1708.2507-.5695,2.505-1.4123,7.3991-1.5909,10.394-.0043.0718.0189.1419.0733.189.3067.2656.9026.4834,1.2134.591.0944.0327.1989-.0037.2528-.0877,0,0,1.9953-3.3394,3.1585-5.2077,1.1632-1.8683,3.638-5.5243,3.638-5.5243.0813-.1267.0109-.2954-.1365-.3273h0Z"/>
      <path class="st18" d="M27.6165,14.2493s0,.0003,0,.0005c.1116-.5631.2199-1.076.3198-1.5153.0262-.1153-.0545-.2278-.1708-.2507l-.9175-.1785c-.0761-.015-.1328-.0678-.1584-.1338,0,0,0,0,0,.0001.0263.0591.0527.118.0791.177.2826.6336.5653,1.2672.8481,1.9007h0Z"/>
      <path class="st20" d="M27.7898,23.9012c-.0487.0215-.1047.0256-.1578.0073-.3108-.1076-.9067-.3255-1.2134-.591-.0122-.0106-.0223-.0227-.0315-.0353.0229.0382.051.0744.0748.1119.1988.2966.3976.5931.5966.8896.1181.1671.2203.3471.3474.507.2874.2489.8458.453,1.1371.5539.0478.0166.0982.0136.1426-.0045l-.8957-1.4388Z"/>
      <path class="st19" d="M33.7446,12.5888l.8002.1727c.0917.0198.1535.0926.1676.1752h0s.0206.0942.0206.0942c1.0544-2.5112,2.4441-4.9381,3.7228-7.556-.0109-.1238-.0219-.2475-.0329-.3712-.0683-.7731-.1367-1.5463-.2053-2.3194-.0003-.0227-.0023-.0455-.0059-.0678.0037.0444-.0049.091-.0283.1342-1.7568,3.2473-3.2967,6.269-4.5921,9.442-.0512.1255.0204.2673.1532.296h0Z"/>
    </g>
  </g>
</svg>